Coordinates
version=1
nRows=32
nColumns=12
inDegrees=yes

Units are S.I. units (second, meters, Newtons, ...)
Angles are in degrees

endheader
time	SC_y	SC_z	SC_x	AC_y	AC_z	AC_x	GH_y	GH_z	GH_yy	EL_x	PS_y
       0.0               -17.3          19.68          59.66          49.88           2.06         -15.38          45.92          67.91           91.9          125.0          83.02
    0.0232              -17.31          19.68          59.65          49.88          2.057         -15.38          45.89          67.91          91.89          125.0          83.01
    0.0464              -17.31          19.68          59.65          49.88          2.055         -15.38          45.86          67.91          91.87          125.0           83.0
   0.06961              -17.31          19.67          59.65          49.87          2.052         -15.38          45.83          67.91          91.86          125.0          82.99
   0.09281              -17.31          19.67          59.65          49.87          2.049         -15.38          45.79          67.91          91.84          125.0          82.98
     0.116              -17.31          19.67          59.65          49.87          2.046         -15.38          45.75          67.91          91.82          125.0          82.96
    0.1392              -17.32          19.67          59.65          49.87          2.042         -15.38          45.71          67.92           91.8          125.0          82.95
    0.1624              -17.32          19.66          59.65          49.86          2.038         -15.38          45.67          67.92          91.78          125.0          82.93
    0.1856              -17.32          19.66          59.65          49.86          2.034         -15.38          45.63          67.92          91.76          125.0          82.92
    0.2088              -17.32          19.66          59.65          49.86           2.03         -15.38          45.58          67.92          91.74          125.0           82.9
     0.232              -17.33          19.66          59.65          49.86          2.025         -15.38          45.53          67.92          91.71          125.0          82.88
    0.2552              -17.33          19.65          59.65          49.85           2.02         -15.38          45.47          67.92          91.68          125.0          82.86
    0.2784              -17.34          19.65          59.65          49.85          2.015         -15.38          45.41          67.92          91.65          125.0          82.84
    0.3016              -17.34          19.64          59.65          49.85          2.009         -15.38          45.35          67.92          91.62          125.0          82.82
    0.3248              -17.34          19.64          59.65          49.84          2.003         -15.38          45.28          67.92          91.59          125.0           82.8
     0.348              -17.35          19.64          59.65          49.84          1.996         -15.38           45.2          67.93          91.55          125.0          82.77
    0.3712              -17.35          19.63          59.65          49.83          1.989         -15.38          45.12          67.93          91.51          125.1          82.74
    0.3944              -17.36          19.62          59.65          49.83          1.981         -15.37          45.03          67.93          91.46          125.1          82.71
    0.4176              -17.37          19.62          59.65          49.82          1.972         -15.37          44.93          67.93          91.42          125.1          82.68
    0.4408              -17.37          19.61          59.64          49.82          1.963         -15.37          44.82          67.93          91.36          125.1          82.64
     0.464              -17.38           19.6          59.64          49.81          1.952         -15.37           44.7          67.94           91.3          125.1           82.6
    0.4872              -17.39           19.6          59.64           49.8          1.941         -15.37          44.57          67.94          91.24          125.1          82.55
    0.5104               -17.4          19.59          59.64          49.79          1.928         -15.37          44.43          67.94          91.17          125.1           82.5
    0.5336              -17.41          19.58          59.64          49.78          1.914         -15.37          44.27          67.95          91.09          125.1          82.45
    0.5569              -17.42          19.57          59.64          49.77          1.898         -15.37          44.09          67.95           91.0          125.1          82.38
    0.5801              -17.43          19.56          59.64          49.76           1.88         -15.36          43.89          67.95          90.91          125.1          82.31
    0.6033              -17.45          19.54          59.63          49.75          1.861         -15.36          43.67          67.96           90.8          125.2          82.24
    0.6265              -17.46          19.53          59.63          49.73          1.838         -15.36          43.42          67.96          90.67          125.2          82.15
    0.6497              -17.48          19.51          59.63          49.72          1.813         -15.35          43.14          67.97          90.53          125.2          82.05
    0.6729               -17.5          19.49          59.63           49.7          1.785         -15.35          42.82          67.98          90.38          125.2          81.94
    0.6961              -17.52          19.47          59.62          49.68          1.753         -15.35          42.45          67.98           90.2          125.2          81.81
    0.7193              -17.55          19.44          59.62          49.65          1.715         -15.34          42.03          67.99          89.99          125.3          81.67
